<svg width="119" height="51" viewBox="0 0 119 51" fill="none" xmlns="http://www.w3.org/2000/svg">
<path fill-rule="evenodd" clip-rule="evenodd" d="M38.2607 36.6V43.8H48.1107V28.05H3.11074V36.6H38.2607ZM35.6107 1H28.4607V5.45H26.0607V1H18.9607V25.05H35.6107V1ZM10.0607 6.4H7.66074V2.5H0.510742V25.05H17.1607V2.5H10.0607V6.4ZM48.1107 26.3V0.5H38.2607V26.3H48.1107ZM28.4607 17.7H26.0607V12.75H28.4607V17.7ZM10.0607 13.7V17.7H7.66074V13.7H10.0607ZM72.291 11.6113V10.918H64.332V11.6113H67.8477V12.3438H65.2793V13.0176H70.377V13.6719H65.2891V15.7422H71.5391V15.0391H66.1973V14.3164H71.2949V12.3438H68.7656V11.6113H72.291ZM68.7656 7.8125V7.04102H67.8477V7.8125H65.123V8.52539H67.7793C67.584 9.26758 66.4023 9.78516 64.7227 9.87305L64.9863 10.5762C66.5195 10.4688 67.7598 10.0195 68.3066 9.24805C68.8535 10.0195 70.0938 10.4688 71.6172 10.5762L71.9004 9.87305C70.2061 9.78516 69.0195 9.26758 68.8438 8.52539H71.5V7.8125H68.7656ZM78.1602 11.1719C76.8418 10.7324 76.041 9.63867 76.0508 8.47656V7.5293H75.123V8.42774C75.1133 9.7168 74.3223 10.8691 72.9551 11.3477L73.4531 12.0996C74.4736 11.7139 75.2158 10.9473 75.6016 9.97071C75.9727 10.8594 76.6855 11.5674 77.6523 11.9141L78.1602 11.1719ZM80.2598 15.8301V12.7246H74.332V13.457H79.332V15.8301H80.2598ZM80.2598 12.2656V7.08008H79.332V8.84766H77.4863V9.60938H79.332V12.2656H80.2598ZM86.0703 13.1934C84.8594 12.5488 84.2246 11.1426 84.2246 9.76563V9.41406H85.7773V8.65235H84.2246V7.39258H83.3555V8.65235H81.7734V9.41406H83.3555V9.76563C83.3457 11.1816 82.7207 12.6758 81.5098 13.3789L82.0566 14.082C82.9014 13.5791 83.4873 12.6611 83.8047 11.5918C84.1172 12.5879 84.708 13.4277 85.5527 13.877L86.0703 13.1934ZM89.1172 15.8301V7.08008H88.2285V15.8301H89.1172ZM87.3398 15.3906V7.26563H86.4609V10.4883H85.2012V11.2598H86.4609V15.3906H87.3398ZM97.291 8.99414V7.92969H91.1973V8.69141H96.3926V8.99414C96.3913 9.10737 96.3904 9.22059 96.3895 9.33413C96.3868 9.67105 96.384 10.0107 96.373 10.3613L90.9531 10.5664L91.0703 11.3281L96.3242 11.0449C96.2754 11.6992 96.1777 12.4023 95.9922 13.2031L96.9102 13.291C97.291 11.4746 97.291 10.2734 97.291 8.99414ZM98.2285 14.6582V13.8965H90.25V14.6582H98.2285ZM105.709 10.625V7.08008H104.791V15.8301H105.709V11.3965H107.115V10.625H105.709ZM104.029 9.20899V8.44727H101.93V7.19727H101.002V8.44727H98.8438V9.20899H104.029ZM103.648 11.8848C103.639 10.6934 102.721 9.85352 101.471 9.85352C100.211 9.85352 99.293 10.6934 99.293 11.8848C99.293 13.0859 100.211 13.916 101.471 13.9258C102.721 13.916 103.639 13.0859 103.648 11.8848ZM100.182 11.8848C100.172 11.1328 100.729 10.6152 101.471 10.6152C102.213 10.6152 102.76 11.1328 102.76 11.8848C102.76 12.6465 102.213 13.1543 101.471 13.1445C100.729 13.1543 100.172 12.6465 100.182 11.8848ZM114.811 15.8301V7.08008H113.873V15.8301H114.811ZM108.111 14.2383C111.109 12.8027 112.203 10.5762 112.203 8.01758H108.043V8.75977H111.266C111.085 10.8008 109.952 12.3779 107.623 13.4863L108.111 14.2383ZM67.8125 21.5156V20.75H67.0781V21.5156H64.25V22.1172H70.6562V21.5156H67.8125ZM70.0703 19.4375V18.8672H64.8438V19.4375H66.9453C66.8203 20.043 65.8203 20.5234 64.5781 20.6094L64.8203 21.1641C66.0547 21.0586 67.082 20.6094 67.4531 19.9063C67.8203 20.6094 68.8438 21.0586 70.0781 21.1641L70.3203 20.6094C69.0547 20.5234 68.0703 20.043 67.9531 19.4375H70.0703ZM70.0469 23.5469V22.9766H67.8125V22.3594H67.0781V22.9766H64.8438V23.5469H70.0469ZM69.5781 24.7656C69.5781 24.1641 68.7969 23.8438 67.4375 23.8438C66.0781 23.8438 65.3203 24.1641 65.3203 24.7656C65.3203 25.375 66.0781 25.6953 67.4375 25.6953C68.7969 25.6953 69.5781 25.375 69.5781 24.7656ZM66.0781 24.7656C66.0703 24.4844 66.5625 24.3516 67.4375 24.3516C68.3281 24.3516 68.8047 24.4844 68.8125 24.7656C68.8047 25.0469 68.3281 25.1953 67.4375 25.1875C66.5625 25.1953 66.0703 25.0469 66.0781 24.7656ZM77.5547 22.9141V22.3203H71.1719V22.9141H77.5547ZM76.8359 25.5156V24.9141H72.7266V23.4844H71.9766V25.5156H76.8359ZM76.8594 20.2969C76.8594 19.4219 75.875 18.8906 74.3594 18.8984C72.8359 18.8906 71.8594 19.4219 71.8594 20.2969C71.8594 21.1797 72.8359 21.7109 74.3594 21.7188C75.875 21.7109 76.8594 21.1797 76.8594 20.2969ZM72.625 20.2969C72.6172 19.7969 73.2891 19.4922 74.3594 19.4922C75.4297 19.4922 76.0938 19.7969 76.0938 20.2969C76.0938 20.8125 75.4297 21.1094 74.3594 21.1094C73.2891 21.1094 72.6172 20.8125 72.625 20.2969ZM83.6484 24.3359C83.6484 23.5078 82.7734 23.0234 81.3281 23.0234C79.8672 23.0234 78.9766 23.5078 78.9766 24.3359C78.9766 25.1719 79.8672 25.6563 81.3281 25.6641C82.7734 25.6563 83.6484 25.1719 83.6484 24.3359ZM79.7188 24.3359C79.7109 23.8672 80.3125 23.6094 81.3281 23.6094C82.3359 23.6094 82.9219 23.8672 82.9219 24.3359C82.9219 24.8047 82.3359 25.0703 81.3281 25.0703C80.3125 25.0703 79.7109 24.8047 79.7188 24.3359ZM83.5859 20.375V18.6641H82.8438V22.8438H83.5859V21.0078H84.6016V20.375H83.5859ZM79.0859 20.1094V19.1016H78.3594V22.3516H81.6562V19.1016H80.9219V20.1094H79.0859ZM80.9219 21.7578H79.0859V20.6953H80.9219V21.7578ZM86.0781 20.0469V19.0234H85.3359V22.25H88.5625V20.9609H90.0938V22.4844H90.8359V18.6641H90.0938V20.3438H88.5625V19.0234H87.8281V20.0469H86.0781ZM87.8281 21.6484H86.0781V20.625H87.8281V21.6484ZM87.0078 23.6016V22.8125H86.2734V25.5625H90.8281V22.8125H90.0938V23.6016H87.0078ZM90.0938 24.9609H87.0078V24.1797H90.0938V24.9609Z" fill="white"/>
<rect x="3" y="46" width="115" height="5" fill="url(#paint0_linear_1475_1616)"/>
<rect width="10.2911" height="17.9997" rx="1" transform="matrix(0.802539 0.5966 -0.586796 0.809735 107.736 24.2273)" fill="white"/>
<ellipse cx="108.125" cy="26.8011" rx="0.766913" ry="0.776306" transform="rotate(-10 108.125 26.8011)" fill="#323A45"/>
<ellipse cx="109.311" cy="27.6429" rx="0.255638" ry="0.258769" transform="rotate(-10 109.311 27.6429)" fill="#323A45"/>
<defs>
<linearGradient id="paint0_linear_1475_1616" x1="118" y1="46" x2="3" y2="46" gradientUnits="userSpaceOnUse">
<stop offset="0.475543" stop-color="#3CB0B8"/>
<stop offset="1" stop-color="#3CB0B8" stop-opacity="0"/>
</linearGradient>
</defs>
</svg>
