<svg width="615" height="751" viewBox="0 0 615 751" fill="none" xmlns="http://www.w3.org/2000/svg">
<rect width="615" height="750" fill="#303A46"/>
<g filter="url(#filter0_d_3419_298)">
<rect width="298.459" height="520.351" rx="20" transform="matrix(0.713382 0.700776 -0.750325 0.661069 390.433 196.86)" fill="#FCFDFF"/>
</g>
<ellipse cx="382.315" cy="270.962" rx="26.591" ry="25.3306" fill="#323A45"/>
<ellipse cx="382.315" cy="270.962" rx="19.9433" ry="18.998" fill="white"/>
<ellipse cx="418.272" cy="306.043" rx="4.7273" ry="4.50322" fill="#323A45"/>
<path d="M179.353 199.864L179.404 172.504L45.8338 172.275L45.8939 139.785L216.894 140.078L216.783 199.928L179.353 199.864ZM142.414 37.1602L169.584 37.2069L169.415 128.597L106.145 128.488L106.314 37.0982L133.294 37.1446L133.262 54.0545L142.382 54.0702L142.414 37.1602ZM63.3359 57.5444L72.4559 57.5601L72.4832 42.7401L99.4632 42.7865L99.3048 128.476L36.0349 128.368L36.1933 42.6777L63.3633 42.7244L63.3359 57.5444ZM217.087 35.3885L216.906 133.428L179.476 133.364L179.657 35.3242L217.087 35.3885ZM133.176 100.604L142.296 100.62L142.331 81.8102L133.211 81.7945L133.176 100.604ZM72.3765 100.5L72.4046 85.3L63.2846 85.2844L63.2565 100.484L72.3765 100.5Z" fill="white"/>
<defs>
<filter id="filter0_d_3419_298" x="4.56836" y="204.829" width="594.212" height="545.202" filterUnits="userSpaceOnUse" color-interpolation-filters="sRGB">
<feFlood flood-opacity="0" result="BackgroundImageFix"/>
<feColorMatrix in="SourceAlpha" type="matrix" values="0 0 0 0 0 0 0 0 0 0 0 0 0 0 0 0 0 0 127 0" result="hardAlpha"/>
<feOffset dy="4"/>
<feGaussianBlur stdDeviation="2"/>
<feComposite in2="hardAlpha" operator="out"/>
<feColorMatrix type="matrix" values="0 0 0 0 0 0 0 0 0 0 0 0 0 0 0 0 0 0 0.25 0"/>
<feBlend mode="normal" in2="BackgroundImageFix" result="effect1_dropShadow_3419_298"/>
<feBlend mode="normal" in="SourceGraphic" in2="effect1_dropShadow_3419_298" result="shape"/>
</filter>
</defs>
</svg>
