<svg width="21" height="24" viewBox="0 0 21 24" fill="none" xmlns="http://www.w3.org/2000/svg">
<mask id="mask0_1464_3291" style="mask-type:alpha" maskUnits="userSpaceOnUse" x="0" y="0" width="21" height="24">
<rect x="0.136353" width="20.2128" height="23.4043" fill="#D9D9D9"/>
</mask>
<g mask="url(#mask0_1464_3291)">
<path d="M13.9484 20.4787L12.7693 19.1135L14.0958 17.5532L12.7693 16.0173L13.9484 14.6276L15.2959 16.1879L16.6224 14.6276L17.8225 16.0173L16.475 17.5532L17.8225 19.1135L16.6224 20.4787L15.2959 18.9428L13.9484 20.4787ZM5.18956 18.5283C5.42818 18.5283 5.6282 18.4349 5.78963 18.248C5.95105 18.0611 6.03176 17.8295 6.03176 17.5532C6.03176 17.2769 5.95105 17.0453 5.78963 16.8584C5.6282 16.6714 5.42818 16.578 5.18956 16.578C4.95094 16.578 4.75091 16.6714 4.58949 16.8584C4.42807 17.0453 4.34736 17.2769 4.34736 17.5532C4.34736 17.8295 4.42807 18.0611 4.58949 18.248C4.75091 18.4349 4.95094 18.5283 5.18956 18.5283ZM5.18956 20.4787C4.48773 20.4787 3.89117 20.1943 3.39989 19.6254C2.90861 19.0566 2.66296 18.3658 2.66296 17.5532C2.66296 16.7405 2.90861 16.0498 3.39989 15.4809C3.89117 14.9121 4.48773 14.6276 5.18956 14.6276C5.70892 14.6276 6.18265 14.7942 6.61077 15.1274C7.03889 15.4606 7.3512 15.9116 7.54772 16.4805C8.09515 16.3017 8.54081 15.9523 8.88471 15.4322C9.2286 14.9121 9.40055 14.3188 9.40055 13.6525V9.75175C9.40055 8.40276 9.81112 7.25286 10.6323 6.30206C11.4534 5.35126 12.4465 4.87586 13.6115 4.87586H14.5801L13.2536 3.33996L14.4537 1.95033L17.8225 5.85104L14.4537 9.75175L13.2536 8.3865L14.5801 6.82622H13.6115C12.9097 6.82622 12.3132 7.11065 11.8219 7.6795C11.3306 8.24835 11.0849 8.9391 11.0849 9.75175V13.6525C11.0849 14.8389 10.7551 15.8832 10.0954 16.7852C9.43564 17.6873 8.60046 18.2439 7.58983 18.4552C7.42139 19.0566 7.11609 19.5442 6.67393 19.918C6.23178 20.2918 5.73699 20.4787 5.18956 20.4787ZM3.84204 8.77657L2.66296 7.41133L3.98943 5.85104L2.66296 4.31514L3.84204 2.92551L5.18956 4.48579L6.51602 2.92551L7.71616 4.31514L6.36864 5.85104L7.71616 7.41133L6.51602 8.77657L5.18956 7.24067L3.84204 8.77657Z" fill="white"/>
</g>
</svg>
