<svg width="20" height="25" viewBox="0 0 20 25" fill="none" xmlns="http://www.w3.org/2000/svg">
<rect width="20" height="25" fill="white"/>
<path d="M7.6 4.275V4.955H5.3V1.79H6.1V4.275H7.6ZM10.8514 4.94V4.955H10.0014C9.97803 4.875 9.9497 4.78333 9.91637 4.68C9.88637 4.57667 9.85303 4.46667 9.81637 4.35H8.73637C8.6697 4.58333 8.60803 4.785 8.55137 4.955H7.70137V4.945L8.72637 1.79H9.82637L10.8514 4.94ZM9.26637 2.36C9.23303 2.53 9.1847 2.73667 9.12137 2.98C9.05803 3.22333 8.99137 3.47167 8.92137 3.725H9.63637C9.56303 3.47167 9.4947 3.22333 9.43137 2.98C9.36803 2.73667 9.3197 2.53 9.28637 2.36H9.26637ZM13.8833 4.145C13.8833 4.41167 13.8 4.61333 13.6333 4.75C13.47 4.88667 13.18 4.955 12.7633 4.955H11.2033V1.79H11.3983H12.7133C12.99 1.79 13.205 1.82 13.3583 1.88C13.515 1.93667 13.625 2.02167 13.6883 2.135C13.7517 2.24833 13.7833 2.39 13.7833 2.56C13.7833 2.79333 13.7267 2.975 13.6133 3.105C13.5033 3.23167 13.295 3.30833 12.9883 3.335V3.35C13.215 3.36667 13.3933 3.405 13.5233 3.465C13.6533 3.52167 13.745 3.605 13.7983 3.715C13.855 3.825 13.8833 3.96833 13.8833 4.145ZM12.4933 2.42H12.0033V3.04H12.4933C12.6567 3.04 12.775 3.02 12.8483 2.98C12.9217 2.93667 12.9583 2.85333 12.9583 2.73C12.9583 2.61 12.9217 2.52833 12.8483 2.485C12.775 2.44167 12.6567 2.42 12.4933 2.42ZM12.5933 3.695H12.0033V4.33H12.5933C12.7567 4.33 12.875 4.30833 12.9483 4.265C13.0217 4.21833 13.0583 4.13333 13.0583 4.01C13.0583 3.88333 13.0217 3.8 12.9483 3.76C12.875 3.71667 12.7567 3.695 12.5933 3.695Z" fill="black"/>
<rect x="2.1333" y="10.7142" width="4" height="4.28571" rx="1" fill="#D9D9D9"/>
<rect x="13.3333" y="10.7142" width="4" height="4.28571" rx="1" fill="#D9D9D9"/>
<rect x="7.73334" y="10.7142" width="4" height="4.28571" rx="1" fill="#D9D9D9"/>
<rect x="2.1333" y="16.4285" width="4" height="4.28571" rx="1" fill="#D9D9D9"/>
<rect x="13.3333" y="16.4285" width="4" height="4.28571" rx="1" fill="#D9D9D9"/>
<rect x="7.73334" y="16.4285" width="4" height="4.28571" rx="1" fill="#D9D9D9"/>
</svg>
